<svg xmlns="http://www.w3.org/2000/svg" width="32" height="32" fill="#000000" viewBox="0 0 256 256"><path d="M216,52H40A20,20,0,0,0,20,72V184a20,20,0,0,0,20,20H216a20,20,0,0,0,20-20V72A20,20,0,0,0,216,52Zm4,132a4,4,0,0,1-4,4H40a4,4,0,0,1-4-4V72a4,4,0,0,1,4-4H216a4,4,0,0,1,4,4ZM56,92a12,12,0,1,1-12-12A12,12,0,0,1,56,92Zm40,0a12,12,0,1,1-12-12A12,12,0,0,1,96,92Zm40,0a12,12,0,1,1-12-12A12,12,0,0,1,136,92Zm40,0a12,12,0,1,1-12-12A12,12,0,0,1,176,92Zm0,40a12,12,0,1,1-12-12A12,12,0,0,1,176,132Zm-40,0a12,12,0,1,1-12-12A12,12,0,0,1,136,132Zm-80,0a12,12,0,1,1-12-12A12,12,0,0,1,56,132Zm120,40H88a12,12,0,0,0,0,24h80a12,12,0,0,0,0-24Z"></path></svg>